<svg width="108" height="92" viewBox="0 0 108 92" fill="none" xmlns="http://www.w3.org/2000/svg">
<g clip-path="url(#clip0_3_1156)">
<path d="M44.9239 26.613L31.2275 -0.00793457L0.941406 79.2761L17.9171 71.0776L32.0956 74.4535L42.3196 87.1853L53.3152 92.0079L63.5391 87.1853L74.2453 74.4535L88.1346 71.0776L105.689 79.2761L75.1134 -0.00793457L61.3208 26.613H44.9239Z" fill="black"/>
<path d="M91.0319 49.2042L72.7772 71.8723L61.8669 84.8282L53.2083 78.7917L44.5454 84.8219L33.6396 71.8723L15.3848 49.2042L31.5559 6.93677L43.28 29.4822H63.1367L74.8609 6.93677L91.0319 49.2042Z" fill="#FF7200"/>
<path d="M39.0395 29.482H26.9585L32.0785 16.0981L39.0395 29.482Z" fill="#FF6700"/>
<path d="M79.4539 29.482H67.373L74.3329 16.0981L79.4539 29.482Z" fill="#FF6700"/>
<path d="M33.6387 71.8721L18.1332 68.0731L6.05322 73.5909L15.3838 49.204L33.6387 71.8721Z" fill="#E5E6E8"/>
<path d="M100.36 73.5909L88.2807 68.0731L72.7754 71.8721L91.0302 49.204L100.36 73.5909Z" fill="#E5E6E8"/>
<path d="M61.8669 84.8277L53.2461 88.8347L44.5454 84.8213L53.2085 78.7911L61.8669 84.8277Z" fill="black"/>
<path d="M44.8403 33.2068L53.2081 54.217L61.5759 33.2068H44.8403Z" fill="#FF6700"/>
<path d="M32.793 48.791H38.9261L44.8764 55.4314V60.2933L35.7222 53.7981L32.793 48.791Z" fill="black"/>
<path d="M67.4877 48.791L61.5376 55.4314V60.2933L70.6917 53.7971L73.621 48.791H67.4877Z" fill="black"/>
</g>
<defs>
<clipPath id="clip0_3_1156">
<rect width="106.294" height="92.0158" fill="white" transform="translate(0.941406 -0.00793457)"/>
</clipPath>
</defs>
</svg>
