<svg width="212" height="44" viewBox="0 0 212 44" fill="none" xmlns="http://www.w3.org/2000/svg">
<g clip-path="url(#clip0_12_343)">
<path d="M179.675 26.8624C177.592 26.8624 175.909 24.9337 175.909 22.5576C175.909 20.1815 177.597 18.2527 179.675 18.2527C181.637 18.2527 183.249 19.965 183.427 22.1583H190.165C189.954 16.55 185.336 12.0624 179.675 12.0624C174.014 12.0624 169.175 16.7616 169.175 22.5624C169.175 28.3631 173.874 33.0624 179.675 33.0624C185.476 33.0624 189.954 28.5796 190.165 22.9664H183.427C183.249 25.1549 181.637 26.872 179.675 26.872V26.8624Z" fill="white"/>
<path d="M204.406 12.0624V19.3374H196.081C195.851 19.3374 195.661 19.1524 195.661 18.9174C195.661 18.6824 195.851 18.4974 196.081 18.4974H199.161V12.0624H192.166V33.0474H199.161V25.7724H207.486C207.716 25.7724 207.906 25.9624 207.906 26.1924C207.906 26.4224 207.716 26.6124 207.486 26.6124H204.406V33.0474H211.401V12.0624H204.406Z" fill="white"/>
<path d="M167.175 12.0624H147.935V18.4974H154.055V33.0474H161.05V19.3374H157.97C157.74 19.3374 157.55 19.1474 157.55 18.9174C157.55 18.6874 157.74 18.4974 157.97 18.4974H167.17V12.0624H167.175Z" fill="white"/>
<path d="M139.96 12.0624H133.175L125.2 33.0474H139.675L137.47 26.6124H134.78L137.76 17.9074C137.835 17.6874 138.075 17.5724 138.295 17.6474C138.515 17.7224 138.63 17.9624 138.555 18.1824L137.01 22.6874L140.56 33.0524H147.935L139.96 12.0674V12.0624Z" fill="white"/>
<path d="M123.2 12.0624H116.015L110.755 22.6124L105.495 12.0624H98.3101V33.0474H105.305V27.9924L103.215 23.7924C103.11 23.5874 103.195 23.3324 103.405 23.2324C103.61 23.1274 103.865 23.2124 103.97 23.4224L107.16 29.8324H114.35L117.54 23.4224C117.645 23.2124 117.895 23.1324 118.105 23.2324C118.31 23.3374 118.395 23.5874 118.295 23.7924L116.205 27.9924V33.0474H123.2V12.0624Z" fill="white"/>
<path d="M67.24 12.0624V19.3924L70.525 25.0174C70.64 25.2174 70.575 25.4724 70.375 25.5924C70.175 25.7124 69.92 25.6424 69.8 25.4424L61.995 12.0624H55V33.0474H61.995V25.7174L58.71 20.0924C58.595 19.8924 58.66 19.6374 58.86 19.5174C59.06 19.4024 59.32 19.4674 59.435 19.6674L67.24 33.0474H74.235V12.0624H67.24Z" fill="white"/>
<path d="M32.7852 20.0224C32.6602 19.8274 32.7102 19.5674 32.9052 19.4424C33.1002 19.3174 33.3602 19.3674 33.4852 19.5624L34.9452 21.7874L41.3102 12.0624H33.7452L26.9352 22.4724C26.8102 22.6674 26.5502 22.7224 26.3552 22.5924C26.1602 22.4674 26.1052 22.2074 26.2352 22.0124L29.0702 17.6824V12.0624H22.0752V33.0474H29.0702V25.8974L33.7502 33.0474H41.3152L32.7902 20.0174L32.7852 20.0224Z" fill="white"/>
<path d="M13.22 19.3374H7.415C7.185 19.3374 6.995 19.1474 6.995 18.9174C6.995 18.6874 7.185 18.4974 7.415 18.4974H18.81V12.0624H6.855C3.07 12.0624 0 15.1324 0 18.9174C0 22.7024 3.07 25.7724 6.855 25.7724H12.66C12.89 25.7724 13.08 25.9624 13.08 26.1924C13.08 26.4224 12.89 26.6124 12.66 26.6124H1.265V33.0474H13.22C17.005 33.0474 20.075 29.9774 20.075 26.1924C20.075 22.4074 17.005 19.3374 13.22 19.3374Z" fill="white"/>
<path d="M89.4549 19.3374H83.6499C83.4199 19.3374 83.2299 19.1474 83.2299 18.9174C83.2299 18.6874 83.4199 18.4974 83.6499 18.4974H95.0449V12.0624H83.0899C79.3049 12.0624 76.2349 15.1324 76.2349 18.9174C76.2349 22.7024 79.3049 25.7724 83.0899 25.7724H88.8949C89.1249 25.7724 89.3149 25.9624 89.3149 26.1924C89.3149 26.4224 89.1249 26.6124 88.8949 26.6124H77.4999V33.0474H89.4549C93.2399 33.0474 96.3099 29.9774 96.3099 26.1924C96.3099 22.4074 93.2399 19.3374 89.4549 19.3374Z" fill="white"/>
<path d="M44.9724 11.5824L44.9722 25.699L45.3961 25.699L45.3964 27.3508H44.9724L44.6111 27.3508C44.5001 27.3523 44.3941 27.3975 44.3161 27.4765C44.2382 27.5555 44.1945 27.6621 44.1945 27.7731C44.1945 27.8841 44.2382 27.9906 44.3162 28.0697C44.3941 28.1487 44.5001 28.1938 44.6111 28.1953H45.4552L45.4552 30.4428L45.9919 30.4428L45.9919 31.0832L45.4552 31.0832V33.031L45.9919 33.031L45.9919 33.6714H45.4553L45.4552 35.6191L45.9919 35.6192V36.2595L45.4553 36.2595L45.4552 38.2073L45.9919 38.2073V38.8476H45.4553L45.4552 41.7652C45.4554 41.8793 45.49 41.9908 45.5545 42.0849C45.6191 42.179 45.7105 42.2515 45.8169 42.2927L45.8169 42.435C45.8169 42.573 45.8717 42.7053 45.9693 42.8029C46.0669 42.9005 46.1992 42.9553 46.3372 42.9553H47.3536L48.37 42.9553C48.5079 42.9553 48.6403 42.9005 48.7378 42.8029C48.8354 42.7053 48.8902 42.573 48.8902 42.435L48.8902 42.2927C48.9966 42.2515 49.0881 42.179 49.1526 42.0849C49.2171 41.9908 49.2517 41.8794 49.2519 41.7652L49.2519 38.8476L48.7152 38.8476L48.7153 38.2073L49.2519 38.2073L49.2523 36.2594L48.7157 36.2594L48.7157 35.619L49.2523 35.6191L49.2523 33.6713L48.7157 33.6712L48.7157 33.0309H49.2523L49.2523 31.0831L48.7157 31.0831L48.7157 30.4427L49.2523 30.4427L49.2523 28.1952L52.819 28.1951C52.8749 28.1959 52.9304 28.1855 52.9823 28.1646C53.0342 28.1438 53.0814 28.1128 53.1212 28.0735C53.161 28.0342 53.1927 27.9874 53.2142 27.9358C53.2358 27.8842 53.2469 27.8288 53.2469 27.7729C53.2469 27.717 53.2358 27.6616 53.2142 27.61C53.1927 27.5584 53.161 27.5116 53.1212 27.4723C53.0814 27.433 53.0342 27.4021 52.9823 27.3812C52.9304 27.3603 52.8749 27.3499 52.819 27.3507L49.7351 27.3507L49.7351 25.686L48.8996 25.1494C48.8548 25.1211 48.816 25.0842 48.7855 25.0408C48.755 24.9974 48.7333 24.9485 48.7219 24.8967C48.7104 24.8449 48.7092 24.7914 48.7185 24.7392C48.7278 24.687 48.7474 24.6372 48.776 24.5925C48.8047 24.5479 48.8419 24.5094 48.8855 24.4793C48.9291 24.4491 48.9783 24.4279 49.0301 24.4168C49.082 24.4057 49.1355 24.405 49.1876 24.4147C49.2397 24.4244 49.2894 24.4444 49.3338 24.4734L49.7351 24.7312L49.7351 23.7917L48.8996 23.2549C48.81 23.1973 48.7469 23.1065 48.7242 23.0024C48.7015 22.8983 48.7212 22.7895 48.7787 22.6998C48.8363 22.6102 48.9272 22.5471 49.0313 22.5244C49.1354 22.5018 49.2442 22.5214 49.3339 22.5789L49.7351 22.8368L49.7351 21.8973L48.8997 21.3606C48.81 21.303 48.747 21.2122 48.7243 21.1081C48.7016 21.004 48.7213 20.8951 48.7789 20.8055C48.8364 20.7159 48.9273 20.6528 49.0314 20.6301C49.1355 20.6074 49.2443 20.6271 49.334 20.6847L49.7352 20.9424V20.003L48.8997 19.4662C48.8553 19.4377 48.817 19.4007 48.7869 19.3574C48.7568 19.3141 48.7355 19.2652 48.7243 19.2137C48.7131 19.1621 48.7121 19.1089 48.7215 19.057C48.7308 19.0051 48.7503 18.9555 48.7789 18.9111C48.8074 18.8667 48.8443 18.8284 48.8877 18.7983C48.931 18.7682 48.9798 18.7469 49.0314 18.7357C49.0829 18.7245 49.1362 18.7235 49.1881 18.7329C49.24 18.7423 49.2896 18.7618 49.334 18.7903L49.7352 19.048L49.7352 18.1085L48.8997 17.5718C48.8548 17.5435 48.8159 17.5067 48.7852 17.4633C48.7546 17.4199 48.7329 17.3709 48.7213 17.3191C48.7098 17.2672 48.7086 17.2136 48.7179 17.1614C48.7272 17.1091 48.7467 17.0592 48.7754 17.0145C48.8041 16.9698 48.8414 16.9313 48.8851 16.9011C48.9288 16.8709 48.978 16.8497 49.03 16.8387C49.0819 16.8276 49.1355 16.827 49.1877 16.8368C49.2399 16.8467 49.2896 16.8667 49.334 16.8959L49.7352 17.1536L49.7352 16.2141L48.8998 15.6771C48.855 15.6488 48.8162 15.6119 48.7856 15.5686C48.7551 15.5252 48.7335 15.4762 48.722 15.4245C48.7105 15.3727 48.7094 15.3192 48.7187 15.267C48.728 15.2148 48.7475 15.1649 48.7762 15.1203C48.8048 15.0757 48.842 15.0372 48.8857 15.007C48.9293 14.9769 48.9784 14.9556 49.0303 14.9446C49.0821 14.9335 49.1357 14.9328 49.1878 14.9425C49.2399 14.9522 49.2896 14.9721 49.334 15.0012L49.7352 15.2589L49.7352 14.3194L48.8997 13.7827C48.8113 13.7246 48.7493 13.6339 48.7274 13.5304C48.7054 13.4269 48.7251 13.3188 48.7823 13.2298C48.8395 13.1408 48.9296 13.0779 49.0329 13.0549C49.1362 13.0318 49.2444 13.0505 49.334 13.1068L49.7352 13.3645V12.425L48.8997 11.8886C48.8554 11.8601 48.817 11.8231 48.7869 11.7798C48.7568 11.7364 48.7356 11.6876 48.7244 11.6361C48.7017 11.532 48.7213 11.4231 48.7789 11.3335C48.8365 11.2438 48.9273 11.1808 49.0314 11.1581C49.1356 11.1354 49.2444 11.1551 49.334 11.2126L49.7352 11.4704V10.531L48.8998 9.99416C48.8113 9.93605 48.7494 9.84538 48.7274 9.74186C48.7054 9.63834 48.7252 9.53033 48.7824 9.44129C48.8396 9.35226 48.9296 9.28939 49.0329 9.26635C49.1362 9.24331 49.2444 9.26196 49.334 9.31825L49.7352 9.57597L49.7351 6.97297L47.771 0.0623779L46.7026 2.70069C45.5598 5.5224 44.9724 8.53812 44.9724 11.5824ZM48.2248 6.22597C48.2773 6.22596 48.3293 6.23629 48.3778 6.25637C48.4262 6.27645 48.4703 6.30589 48.5074 6.343C48.5445 6.38011 48.574 6.42417 48.594 6.47266C48.6141 6.52115 48.6245 6.57312 48.6244 6.62561L48.6245 7.29378C48.6245 7.39978 48.5824 7.50144 48.5075 7.57639C48.4325 7.65135 48.3309 7.69347 48.2249 7.69347C48.1189 7.69348 48.0172 7.65138 47.9422 7.57643C47.8673 7.50149 47.8252 7.39983 47.8252 7.29383L47.8252 6.62555C47.8252 6.57307 47.8355 6.52111 47.8556 6.47262C47.8757 6.42414 47.9051 6.38008 47.9422 6.34298C47.9793 6.30587 48.0234 6.27644 48.0719 6.25636C48.1204 6.23628 48.1723 6.22596 48.2248 6.22597Z" fill="white"/>
</g>
<defs>
<clipPath id="clip0_12_343">
<rect width="212" height="44" fill="white"/>
</clipPath>
</defs>
</svg>
